<svg width="60" height="60" viewBox="0 0 60 60" fill="none" xmlns="http://www.w3.org/2000/svg">
<path d="M14.4208 43V35.5793H15.5021V43H14.4208ZM11.2405 36.6394H9.12031V35.5793H11.2405V36.6394ZM12.3006 43H11.2405V35.5793H12.3006V43ZM8.06022 43V35.5793H9.14152V43H8.06022ZM14.4208 36.6394H12.3006V35.5793H14.4208V36.6394ZM9.12031 32.399H8.06022V13.3173H9.12031V32.399ZM13.3607 32.399H10.1804V13.3173H13.3607V32.399ZM15.4809 32.399H14.4208V13.3173H15.4809V32.399ZM17.9924 37.6995V43H19.0525V37.6995H17.9924ZM22.2328 37.6995H19.0525V38.7596H22.2328V37.6995ZM21.1727 38.7596V39.8197H22.2328V38.7596H21.1727ZM19.0525 32.399H17.9924V13.3173H19.0525V32.399ZM21.1727 32.399H20.1126V13.3173H21.1727V32.399ZM33.6185 43.0212H30.4382V41.9611H33.6185V43.0212ZM29.3781 43.0212V35.6005H30.4594V43.0212H29.3781ZM31.0742 32.399H29.3781V13.3173H31.0742V32.399ZM33.6185 32.399H32.5584V13.3173H33.6185V32.399ZM35.6496 37.7207V43.0212H36.7309V37.7207H35.6496ZM36.7097 35.6005H35.6708V36.6606H36.7097V35.6005ZM36.7097 32.399H35.6496V13.3173H36.7097V32.399ZM39.3103 37.6995H42.4906V38.7172H39.3103V37.6995ZM40.3704 38.7596V43H39.3103V38.7596H40.3704ZM40.3704 41.9399H43.5507V43H40.3704V41.9399ZM43.5507 37.6995V40.8798H42.5118V37.6995H43.5507ZM40.3704 39.8197H42.4906V40.8798H40.3704V39.8197ZM41.4305 32.399H39.3103V13.3173H41.4305V32.399ZM43.5507 32.399H42.4906V13.3173H43.5507V32.399ZM45.6357 37.6995V43.0212H46.6957V37.6995H45.6357ZM50.9361 37.6995H46.6957V38.7596H50.9361V37.6995ZM49.876 38.7596V43H50.9573V38.7596H49.876ZM47.7558 38.7596V43H48.8371V38.7596H47.7558ZM46.6957 32.399H45.6357V13.3173H46.6957V32.399ZM48.8159 32.399H47.7558V13.3173H48.8159V32.399ZM50.9361 32.399H49.876V13.3173H50.9361V32.399Z" fill="black"/>
</svg>
